{"title":"Cyrus.2010.BRRip.H264.Feel-Free","uid":6018730,"size":1186715811,"categoryP":"video","categoryS":"movies","magnet":"?xt=urn:btih:1b46d2e8cd1cae00df0a5d493a22e4cccc09486b&amp;dn=Cyrus.2010.BRRip.H264.Feel-Free&amp;tr=udp%3A%2F%2Ftracker.openbittorrent.com%3A80&amp;tr=udp%3A%2F%2Fopen.demonii.com%3A1337&amp;tr=udp%3A%2F%2Ftracker.coppersurfer.tk%3A6969&amp;tr=udp%3A%2F%2Fexodus.desync.com%3A6969","seeders":0,"leechers":0,"uploader":"hiest","files":-1,"time":1291728691,"description":"Genre:Comedy | Drama | Romance\nLanguage:English\nIMDb:http://www.imdb.com/title/tt1336617/\nSource:.720p.BluRay.DTS.x264-REFiNED\n\n\nFormat : MPEG-4\nFormat profile : Base Media \nCodec ID : mp42\nFile size : 1.10 GiB\nDuration : 1h 31mn\nOverall bit rate : 1 735 Kbps\n\n\nVideo\nID : 1\nFormat : AVC\nFormat/Info : Advanced Video Codec\nFormat profile : &lt;a class=&quot;__cf_email__&quot; href=&quot;/cdn-cgi/l/email-protection&quot; data-cfemail=&quot;bdf0dcd4d3fdf188938c&quot;&gt;[email&amp;#160;protected]&lt;/a&gt;&lt;script cf-hash='f9e31' type=&quot;text/javascript&quot;&gt;\n/* &lt;![CDATA[ */!function(){try{var t=&quot;currentScript&quot;in document?document.currentScript:function(){for(var t=document.getElementsByTagName(&quot;script&quot;),e=t.length;e--;)if(t[e].getAttribute(&quot;cf-hash&quot;))return t[e]}();if(t&amp;&amp;t.previousSibling){var e,r,n,i,c=t.previousSibling,a=c.getAttribute(&quot;data-cfemail&quot;);if(a){for(e=&quot;&quot;,r=parseInt(a.substr(0,2),16),n=2;a.length-n;n+=2)i=parseInt(a.substr(n,2),16)^r,e+=String.fromCharCode(i);e=document.createTextNode(e),c.parentNode.replaceChild(e,c)}}}catch(u){}}();/* ]]&gt; */&lt;/script&gt;\nFormat settings, CABAC : Yes\nFormat settings, ReFrames : 1 frame\nCodec ID : avc1\nCodec ID/Info : Advanced Video Coding\nDuration : 1h 31mn\nBit rate mode : Variable\nBit rate : 1 334 Kbps\nWidth : 720 pixels\nHeight : 384 pixels\nDisplay aspect ratio : 1.875\nFrame rate mode : Constant\nFrame rate : 23.976 fps\nColor space : YUV\nChroma subsampling : 4:2:0\nBit depth : 8 bits\nScan type : Progressive\nBits/(Pixel*Frame) : 0.201\nStream size : 868 MiB (77%)\nLanguage : English\n\n\nAudio\nID : 2\nFormat : AAC\nFormat/Info : Advanced Audio Codec\nFormat version : Version 4\nFormat profile : LC\nCodec ID : 40\nDuration : 1h 31mn\nBit rate mode : Constant\nBit rate : 397 Kbps\nNominal bit rate : 576 Kbps\nChannel(s) : 6 channels\nChannel positions : Front: L C R, Side: L R, LFE\nSampling rate : 48.0 KHz\nStream size : 258 MiB (23%)\nLanguage : English\n\n\nPlot:\nA recently divorced guy meets the woman of his dreams. Then he meets her son.\n\n\n\n\n\n\n\n\n\n================================== &lt;a href=&quot;\nhttp://thepiratebay.se/user/hiest&quot; rel=&quot;nofollow&quot; target=&quot;_NEW&quot;&gt;\nhttp://thepiratebay.se/user/hiest&lt;/a&gt;\n==================================\n\n\n\n\n\n\n\n\n\nScreenshots:\n &lt;a href=&quot;\nhttp://rapidhdd.com/images/380231vlcsnap-2010-12-07-14h09m21s48.png&quot; rel=&quot;nofollow&quot; target=&quot;_NEW&quot;&gt;\nhttp://rapidhdd.com/images/380231vlcsnap-2010-12-07-14h09m21s48.png&lt;/a&gt;\n &lt;a href=&quot;\nhttp://www.rapidhdd.com/images/71398vlcsnap-2010-12-07-14h09m32s146.png&quot; rel=&quot;nofollow&quot; target=&quot;_NEW&quot;&gt;\nhttp://www.rapidhdd.com/images/71398vlcsnap-2010-12-07-14h09m32s146.png&lt;/a&gt;\n &lt;a href=&quot;\nhttp://www.rapidhdd.com/images/117999vlcsnap-2010-12-07-14h09m37s203.png&quot; rel=&quot;nofollow&quot; target=&quot;_NEW&quot;&gt;\nhttp://www.rapidhdd.com/images/117999vlcsnap-2010-12-07-14h09m37s203.png&lt;/a&gt;\n &lt;a href=&quot;\nhttp://www.rapidhdd.com/images/469399vlcsnap-2010-12-07-14h10m55s225.png&quot; rel=&quot;nofollow&quot; target=&quot;_NEW&quot;&gt;\nhttp://www.rapidhdd.com/images/469399vlcsnap-2010-12-07-14h10m55s225.png&lt;/a&gt;\n &lt;a href=&quot;\nhttp://www.rapidhdd.com/images/691458vlcsnap-2010-12-07-14h09m46s51.png&quot; rel=&quot;nofollow&quot; target=&quot;_NEW&quot;&gt;\nhttp://www.rapidhdd.com/images/691458vlcsnap-2010-12-07-14h09m46s51.png&lt;/a&gt;\n &lt;a href=&quot;\nhttp://www.rapidhdd.com/images/770968vlcsnap-2010-12-07-14h10m00s178.png&quot; rel=&quot;nofollow&quot; target=&quot;_NEW&quot;&gt;\nhttp://www.rapidhdd.com/images/770968vlcsnap-2010-12-07-14h10m00s178.png&lt;/a&gt;","torrent":{"xt":"urn:btih:1b46d2e8cd1cae00df0a5d493a22e4cccc09486b","amp;dn":"Cyrus.2010.BRRip.H264.Feel-Free","amp;tr":["udp%3A%2F%2Ftracker.openbittorrent.com%3A80","udp%3A%2F%2Fopen.demonii.com%3A1337","udp%3A%2F%2Ftracker.coppersurfer.tk%3A6969","udp%3A%2F%2Fexodus.desync.com%3A6969"],"infoHash":"1b46d2e8cd1cae00df0a5d493a22e4cccc09486b","infoHashBuffer":{"type":"Buffer","data":[27,70,210,232,205,28,174,0,223,10,93,73,58,34,228,204,204,9,72,107]},"announce":[],"urlList":[]}}